<?xml version="1.0" encoding="UTF-8" standalone="no"?>
<!DOCTYPE svg PUBLIC "-//W3C//DTD SVG 1.1//EN"
 "http://www.w3.org/Graphics/SVG/1.1/DTD/svg11.dtd">
<!-- Generated by graphviz version 2.40.1 (20161225.0304)
 -->
<!-- Title: G Pages: 1 -->
<svg width="363pt" height="260pt"
 viewBox="0.00 0.00 363.00 260.00" xmlns="http://www.w3.org/2000/svg" xmlns:xlink="http://www.w3.org/1999/xlink">
<g id="graph0" class="graph" transform="scale(1 1) rotate(0) translate(4 256)">
<title>G</title>
<polygon fill="#ffffff" stroke="transparent" points="-4,4 -4,-256 359,-256 359,4 -4,4"/>
<!-- A0 -->
<g id="node1" class="node">
<title>A0</title>
<polygon fill="none" stroke="#000000" points="2,-118 2,-150 78,-150 78,-118 2,-118"/>
<text text-anchor="start" x="26.6625" y="-131" font-family="Helvetica,sans-Serif" font-size="10.00" fill="#000000">Board</text>
<polygon fill="none" stroke="#000000" points="2,-86 2,-118 78,-118 78,-86 2,-86"/>
<text text-anchor="start" x="22.498" y="-99" font-family="Helvetica,sans-Serif" font-size="10.00" fill="#000000">projects</text>
<polygon fill="none" stroke="#000000" points="2,-42 2,-86 78,-86 78,-42 2,-42"/>
<text text-anchor="start" x="11.6655" y="-67" font-family="Helvetica,sans-Serif" font-size="10.00" fill="#000000">getProjects()</text>
<text text-anchor="start" x="12.7755" y="-55" font-family="Helvetica,sans-Serif" font-size="10.00" fill="#000000">addProject()</text>
</g>
<!-- A1 -->
<g id="node2" class="node">
<title>A1</title>
<polygon fill="none" stroke="#000000" points="130,-130 130,-162 198,-162 198,-130 130,-130"/>
<text text-anchor="start" x="148.443" y="-143" font-family="Helvetica,sans-Serif" font-size="10.00" fill="#000000">Project</text>
<polygon fill="none" stroke="#000000" points="130,-74 130,-130 198,-130 198,-74 130,-74"/>
<text text-anchor="start" x="152.331" y="-111" font-family="Helvetica,sans-Serif" font-size="10.00" fill="#000000">tasks</text>
<text text-anchor="start" x="156.2225" y="-99" font-family="Helvetica,sans-Serif" font-size="10.00" fill="#000000">title</text>
<text text-anchor="start" x="139.8295" y="-87" font-family="Helvetica,sans-Serif" font-size="10.00" fill="#000000">description</text>
<polygon fill="none" stroke="#000000" points="130,-30 130,-74 198,-74 198,-30 130,-30"/>
<text text-anchor="start" x="140.3885" y="-55" font-family="Helvetica,sans-Serif" font-size="10.00" fill="#000000">getTasks()</text>
<text text-anchor="start" x="141.4985" y="-43" font-family="Helvetica,sans-Serif" font-size="10.00" fill="#000000">addTask()</text>
</g>
<!-- A0&#45;&gt;A1 -->
<g id="edge1" class="edge">
<title>A0&#45;&gt;A1</title>
<path fill="none" stroke="#000000" d="M78.2159,-96C91.3717,-96 106.2115,-96 119.8038,-96"/>
<polygon fill="#000000" stroke="#000000" points="129.9063,-96 119.9063,-100.5001 124.9063,-96 119.9063,-96.0001 119.9063,-96.0001 119.9063,-96.0001 124.9063,-96 119.9062,-91.5001 129.9063,-96 129.9063,-96"/>
</g>
<!-- A2 -->
<g id="node3" class="node">
<title>A2</title>
<polygon fill="none" stroke="#000000" points="248.5,-160 248.5,-192 355.5,-192 355.5,-160 248.5,-160"/>
<text text-anchor="start" x="291.166" y="-173" font-family="Helvetica,sans-Serif" font-size="10.00" fill="#000000">Task</text>
<polygon fill="none" stroke="#000000" points="248.5,-80 248.5,-160 355.5,-160 355.5,-80 248.5,-80"/>
<text text-anchor="start" x="283.1035" y="-141" font-family="Helvetica,sans-Serif" font-size="10.00" fill="#000000">dueDate</text>
<text text-anchor="start" x="278.939" y="-129" font-family="Helvetica,sans-Serif" font-size="10.00" fill="#000000">completed</text>
<text text-anchor="start" x="277.8295" y="-117" font-family="Helvetica,sans-Serif" font-size="10.00" fill="#000000">description</text>
<text text-anchor="start" x="287.0035" y="-105" font-family="Helvetica,sans-Serif" font-size="10.00" fill="#000000">priority</text>
<text text-anchor="start" x="294.2225" y="-93" font-family="Helvetica,sans-Serif" font-size="10.00" fill="#000000">title</text>
<polygon fill="none" stroke="#000000" points="248.5,0 248.5,-80 355.5,-80 355.5,0 248.5,0"/>
<text text-anchor="start" x="263.6575" y="-61" font-family="Helvetica,sans-Serif" font-size="10.00" fill="#000000">updateDueDate()</text>
<text text-anchor="start" x="269.2115" y="-49" font-family="Helvetica,sans-Serif" font-size="10.00" fill="#000000">updateStatus()</text>
<text text-anchor="start" x="273.9415" y="-37" font-family="Helvetica,sans-Serif" font-size="10.00" fill="#000000">updateTitle()</text>
<text text-anchor="start" x="258.3835" y="-25" font-family="Helvetica,sans-Serif" font-size="10.00" fill="#000000">updateDescription()</text>
<text text-anchor="start" x="267.8325" y="-13" font-family="Helvetica,sans-Serif" font-size="10.00" fill="#000000">updatePriority()</text>
</g>
<!-- A1&#45;&gt;A2 -->
<g id="edge2" class="edge">
<title>A1&#45;&gt;A2</title>
<path fill="none" stroke="#000000" d="M198.3424,-96C210.2591,-96 224.034,-96 237.5595,-96"/>
<polygon fill="#000000" stroke="#000000" points="247.819,-96 237.819,-100.5001 242.819,-96 237.819,-96.0001 237.819,-96.0001 237.819,-96.0001 242.819,-96 237.8189,-91.5001 247.819,-96 247.819,-96"/>
</g>
<!-- A3 -->
<g id="node4" class="node">
<title>A3</title>
<polygon fill="none" stroke="#000000" points="0,-220 0,-252 80,-252 80,-220 0,-220"/>
<text text-anchor="start" x="9.9955" y="-233" font-family="Helvetica,sans-Serif" font-size="10.00" fill="#000000">UserInterface</text>
<polygon fill="none" stroke="#000000" points="0,-200 0,-220 80,-220 80,-200 0,-200"/>
<polygon fill="none" stroke="#000000" points="0,-168 0,-200 80,-200 80,-168 0,-168"/>
<text text-anchor="start" x="25.838" y="-181" font-family="Helvetica,sans-Serif" font-size="10.00" fill="#000000">draw()</text>
</g>
</g>
</svg>
